<?xml version="1.0" encoding="UTF-8"?>
<svg version="1.1" viewBox="0 0 1600 1448" width="1280" height="1280" xmlns="http://www.w3.org/2000/svg">
<path transform="translate(1436 122)" d="m0 0c4.19 3.23 7.55 6.32 10.7 10.6 0.516 0.495 1.03 0.99 1.56 1.5 5.27 5.5 7.76 12.5 10.4 19.5 0.371 0.855 0.743 1.71 1.12 2.59 3.32 13 2.58 30.2-3.12 42.4-0.526 1.18-0.526 1.18-1.06 2.38-7.47 14.9-20.9 27.2-36.7 32.6-2.41 0.733-4.83 1.41-7.26 2.07-1.49 0.495-1.49 0.495-3 1 0.234 0.93 0.234 0.93 0.473 1.88 3.35 15.3 0.616 31.7-5.57 45.9-0.834 2.02-1.4 3.94-1.9 6.06-1.14 3.55-2.38 4.55-5 7.12-1.42 1.89-2.82 3.79-4.21 5.7-8.76 11.5-19.5 21.4-29.7 31.5-2.25 2.24-4.5 4.49-6.74 6.74-2.16 2.17-4.33 4.33-6.5 6.49-1.04 1.03-2.07 2.06-3.1 3.1-1.43 1.43-2.87 2.85-4.31 4.28-1.22 1.22-1.22 1.22-2.47 2.46-1.99 1.73-1.99 1.73-3.99 1.73-0.402 0.959-0.402 0.959-0.812 1.94-1.19 2.06-1.19 2.06-4.19 3.06-0.33 0.99-0.66 1.98-1 3-1.45 1.39-1.45 1.39-3.25 2.81-2.38 1.96-4.19 3.72-6.19 6.12-2.58 3.09-5.31 5.52-8.37 8.12-3.28 2.9-6.28 6.06-9.31 9.22-1.88 1.72-1.88 1.72-3.88 1.72-0.66 1.32-1.32 2.64-2 4h-2c-0.247 0.572-0.495 1.14-0.75 1.73-1.44 2.62-3.13 4.41-5.25 6.52-0.701 0.706-1.4 1.41-2.12 2.14-1.88 1.61-1.88 1.61-3.88 1.61-0.268 0.639-0.536 1.28-0.812 1.94-1.19 2.06-1.19 2.06-4.19 3.06-1.21 2-1.21 2-2 4h-2c-0.247 0.572-0.495 1.14-0.75 1.73-1.44 2.62-3.13 4.41-5.25 6.52-0.701 0.706-1.4 1.41-2.12 2.14-1.88 1.61-1.88 1.61-3.88 1.61-0.66 1.32-1.32 2.64-2 4h-2c-0.247 0.572-0.495 1.14-0.75 1.73-1.44 2.62-3.13 4.41-5.25 6.52-0.701 0.706-1.4 1.41-2.12 2.14-1.88 1.61-1.88 1.61-3.88 1.61-0.227 0.557-0.454 1.11-0.688 1.69-1.69 2.97-3.78 5.03-6.31 7.31h-2c-0.268 0.598-0.536 1.2-0.812 1.81-1.19 2.19-2.28 3.6-4.19 5.19h-2c-0.268 0.639-0.536 1.28-0.812 1.94-1.19 2.06-1.19 2.06-4.19 3.06-1.21 2-1.21 2-2 4h-2c-0.66 1.32-1.32 2.64-2 4h-2c-0.66 1.32-1.32 2.64-2 4h-2c-0.66 1.32-1.32 2.64-2 4h-2c-0.66 1.32-1.32 2.64-2 4h-2c-0.66 1.32-1.32 2.64-2 4h-2v3c-0.619 0.0825-1.24 0.165-1.88 0.25-2.31 0.563-2.31 0.563-3.38 2.81-0.247 0.639-0.495 1.28-0.75 1.94h-2c-0.227 0.557-0.454 1.11-0.688 1.69-1.69 2.97-3.78 5.03-6.31 7.31h-2c-0.66 1.32-1.32 2.64-2 4h-2c-0.66 1.32-1.32 2.64-2 4h-2c-0.66 1.32-1.32 2.64-2 4h-2c-0.66 1.32-1.32 2.64-2 4h-2c-0.247 0.572-0.495 1.14-0.75 1.73-1.44 2.62-3.13 4.41-5.25 6.52-0.701 0.706-1.4 1.41-2.12 2.14-1.88 1.61-1.88 1.61-3.88 1.61-0.206 0.557-0.412 1.11-0.625 1.69-1.54 2.59-3.42 4.07-5.76 5.91-1.64 1.42-2.85 2.88-4.18 4.59-10.6 12.7-26.7 20.9-42.4 24.8-0.879 0.226-1.76 0.451-2.66 0.684-16.7 3.66-38 2.27-53.3-5.68-0.928-0.598-1.86-1.2-2.81-1.81-2.14-1.38-2.14-1.38-4.69-1.25-2.9 1.23-4.23 2.89-6.11 5.38-2.01 2.43-4.39 4.32-6.84 6.29-1.8 1.51-1.8 1.51-3.55 4.39h-2c-0.206 0.557-0.412 1.11-0.625 1.69-1.53 2.58-3.39 4.05-5.73 5.89-2.36 2.04-4.27 4.38-6.27 6.77-1.69 2.01-3.42 3.9-5.38 5.65h-2v3c-0.601 0.262-1.2 0.523-1.82 0.793-2.31 1.28-3.43 2.46-5.05 4.52-1.94 2.37-3.67 4.14-6.06 6.12-3.27 2.74-5.85 5.7-8.55 8.99-0.5 0.519-1 1.04-1.52 1.57h-2c-0.206 0.557-0.412 1.11-0.625 1.69-1.53 2.58-3.4 4.05-5.73 5.89-1.75 1.52-3.17 3.13-4.64 4.92-2.7 3.26-5.74 5.79-9 8.5-1.02 1.15-2.02 2.32-3 3.5-2.7 3.26-5.74 5.79-9 8.5-1 1.13-1.98 2.27-2.94 3.44-2.53 3.06-5.27 5.5-8.32 8.01-2.44 2.19-4.45 4.67-6.48 7.23-0.416 0.436-0.833 0.871-1.26 1.32h-2c-0.171 0.629-0.342 1.26-0.518 1.91-1.45 5.32-2.91 10.6-4.38 15.9-4.7 16.9-4.7 16.9-9.04 33.9-3.5 14.3-7.3 28.5-11.1 42.7-1.1 4.1-2.18 8.2-3.26 12.3-0.207 0.786-0.415 1.57-0.628 2.38-1.23 4.68-2.45 9.37-3.65 14.1-3.11 12.1-6.28 24.1-9.59 36.2-0.321 1.17-0.641 2.34-0.972 3.54-1.89 6.81-3.89 13.6-6 20.3-0.683 2.24-1.28 4.48-1.84 6.76 0.945-0.00152 1.89-0.00304 2.86-0.0046 56-0.0896 112-0.158 168-0.2 6.72-0.00499 13.4-0.0102 20.2-0.0155 1-7.85e-4 1-7.85e-4 2.03-0.00158 21.7-0.017 43.4-0.0471 65-0.0839 22.9-0.0388 45.8-0.0628 68.7-0.0712 13.7-0.00549 27.5-0.0229 41.2-0.0553 9.41-0.0211 18.8-0.0275 28.2-0.0223 5.43 0.00257 10.9-0.00143 16.3-0.0228 4.97-0.0194 9.94-0.0205 14.9-0.00677 1.8 0.00169 3.6-0.00341 5.4-0.0159 2.44-0.016 4.89-0.00742 7.33 0.00734 1.05-0.0158 1.05-0.0158 2.12-0.0318 5.94 0.0811 10 2.11 14.4 6.05 6.08 7.75 5.65 14.8 5.61 24.3-0.00182 0.728-0.00365 1.46-0.00552 2.21-0.169 40.4-5.5 84.3-18.5 123-1.32 3.91-2.55 7.84-3.79 11.8-0.264 0.835-0.528 1.67-0.801 2.53-1.31 4.14-2.57 8.29-3.76 12.5-1.34 4.51-3.14 8.78-4.99 13.1-1.38 3.31-2.67 6.65-3.94 10-3.34 8.8-7.16 17.1-11.5 25.5-1 2-1.99 4-2.98 6.01-9.44 19.1-20 37.4-32 55-0.947 1.45-0.947 1.45-1.91 2.93-4.61 7.07-9.6 13.8-14.8 20.4-1.71 2.2-3.4 4.42-5.09 6.63-3.68 4.82-7.41 9.6-11.2 14.3-0.722 0.904-1.44 1.81-2.19 2.74-0.598 0.643-1.2 1.29-1.81 1.95h-2c-0.227 0.557-0.454 1.11-0.688 1.69-1.67 2.95-3.92 4.92-6.31 7.31-0.789 1.11-1.56 2.24-2.31 3.38-2.47 3.59-5.46 6.16-8.78 8.94-2.12 1.79-2.12 1.79-4.41 4.68-2.55 3.06-5.24 5.5-8.26 8.08-2.45 2.1-4.85 4.25-7.24 6.42-1.67 1.5-3.33 3-5 4.5-0.634 0.575-1.27 1.15-1.92 1.74-4.9 4.38-10 8.42-15.2 12.4-3.29 2.53-3.29 2.53-6.34 5.33-2.43 2.41-5.27 4.27-8.06 6.24-0.944 0.668-0.944 0.668-1.91 1.35-1.26 0.895-2.53 1.79-3.8 2.68-1.45 1.02-2.9 2.05-4.35 3.08-2.45 1.73-4.91 3.44-7.38 5.14-1.54 1.07-1.54 1.07-3.11 2.16-26.5 18.2-55.1 33-84.9 44.8-2.58 1.04-5.17 2.08-7.75 3.13-3 1.16-6.04 2.17-9.11 3.16-2.05 0.684-4.06 1.43-6.08 2.21-2.86 1.09-5.73 2.02-8.67 2.89-3.49 1.03-6.96 2.11-10.4 3.23-14.2 4.53-28.4 7.86-43 10.8-2.36 0.478-4.7 0.975-7.05 1.5-3.62 0.787-7.26 1.48-10.9 2.1-0.888 0.152-1.78 0.304-2.69 0.46-51.1 8.44-103 7.02-155 6.93-7.24-0.0113-14.5-0.00724-21.7 0.00541-129 0.219-129 0.219-177-11.4-1.75-0.406-3.51-0.809-5.27-1.21-9.76-2.27-19.4-4.76-29-7.66-3.21-0.967-6.43-1.88-9.68-2.75-23.2-6.27-46.1-15.7-67.6-26.6-3.53-1.8-7.08-3.54-10.6-5.29-5.81-2.91-11.4-6.04-17-9.39-2.23-1.33-4.46-2.65-6.7-3.98-16.2-9.59-16.2-9.59-23.5-14.9-1.67-1.27-1.67-1.27-3.68-2.21v-2l-2.19-0.789c-2.91-1.25-5.24-2.74-7.81-4.59-1.31-0.934-1.31-0.934-2.64-1.89-2.51-1.85-4.96-3.75-7.36-5.74-3.32-2.77-3.32-2.77-7-5v-2l-1.62-0.75c-5.25-2.76-9.22-6.06-13.4-10.2-1.98-1.86-3.99-3.68-6-5.5-2.96-2.68-5.88-5.38-8.7-8.21-2.29-2.38-2.29-2.38-5.11-4.48l-2.19-1.81v-2l-1.75-0.75c-2.58-1.43-4.31-3.03-6.25-5.25v-2c-0.99-0.33-1.98-0.66-3-1-1.75-1.71-1.75-1.71-3.56-3.81-0.599-0.687-1.2-1.37-1.82-2.08-1.62-2.11-1.62-2.11-2.65-4.3-0.9-2.16-0.9-2.16-3.97-2.8-5-5.47-5-5.47-5-8-0.99-0.33-1.98-0.66-3-1-1.78-2.05-3.43-4.09-5.06-6.25-0.485-0.631-0.971-1.26-1.47-1.91-1.01-1.31-2.01-2.62-3.01-3.93-1.33-1.73-2.67-3.45-4.02-5.16-6.52-8.33-12.5-17-18.4-25.7l-2.19-3.23c-6.59-9.78-12.8-19.7-18.4-30.1-1.42-2.63-2.9-5.22-4.39-7.81-8.15-14.3-14.9-29.2-21.1-44.5-0.977-2.41-1.97-4.82-2.95-7.23-9.96-24.4-17.2-49.4-23-75.1l-0.633-2.76c-0.419-2.55-0.464-4.97-0.43-7.55l0.0273-2.68 0.0352-2.01h-2c-2.14-10.8-3.85-21.5-5.12-32.4-0.0856-0.723-0.171-1.45-0.259-2.19-1.23-10.4-2.41-20.8-2.62-31.4l-0.0781-3.2c-0.0798-3.64-0.13-7.28-0.172-10.9-0.0216-1.16-0.0432-2.33-0.0654-3.53-0.0301-7.96 0.5-13.1 5.88-19.3 2.44-2.06 2.44-2.06 4.44-2.06l1-3c2.87-0.957 4.66-1.13 7.64-1.13 0.959-0.00362 1.92-0.00725 2.9-0.011 1.58 0.0016 1.58 0.0016 3.2 0.00324 1.12-0.00282 2.24-0.00564 3.39-0.00855 3.77-0.00837 7.54-0.00969 11.3-0.0111 2.7-0.00467 5.39-0.00974 8.09-0.0154 5.81-0.0115 11.6-0.0198 17.4-0.0261 9.18-0.0103 18.4-0.0309 27.6-0.0531 3.14-0.00748 6.28-0.0149 9.42-0.0223 0.785-0.00185 1.57-0.0037 2.38-0.00561 8.94-0.0209 17.9-0.0398 26.8-0.0576 0.817-0.00164 1.63-0.00328 2.48-0.00496 13.2-0.0263 26.5-0.0449 39.7-0.0616 13.6-0.0174 27.2-0.0462 40.8-0.0849 8.39-0.0234 16.8-0.0374 25.2-0.0393 5.75-0.0021 11.5-0.015 17.2-0.0365 3.32-0.0121 6.64-0.0175 9.95-0.0133 3.59 0.00387 7.18-0.0105 10.8-0.0295 1.06 0.00553 2.11 0.0111 3.2 0.0168 0.959-0.00884 1.92-0.0177 2.9-0.0268 0.83-0.00136 1.66-0.00271 2.51-0.00411 2.67-0.474 3.47-1.27 5.13-3.38 1.36-2.55 2.66-5.1 3.94-7.69 4.73-9.24 10.6-17.2 17.1-25.3 0.829-1.07 1.66-2.13 2.48-3.2 3.72-4.7 7.46-8.84 12.1-12.7 4.18-3.69 8.02-7.73 11.9-11.7 3.44-3.51 6.88-6.49 10.9-9.25 2.47-1.79 4.49-3.98 6.61-6.17 1.81-1.59 3.64-3.15 5.5-4.69 1.38-1.15 1.38-1.15 2.78-2.32 2.54-1.86 4.75-2.98 7.72-3.99v-2c1.36-0.955 2.72-1.9 4.12-2.79 2.06-1.33 4.03-2.75 6.01-4.2 0.736-0.538 1.47-1.08 2.23-1.63 0.765-0.559 1.53-1.12 2.32-1.69 6.63-4.81 13.3-9.42 20.3-13.7 1.06-0.655 2.11-1.31 3.2-1.98 3.26-2.02 6.53-4.02 9.8-6.02 0.866-0.538 1.73-1.08 2.62-1.63 5.21-3.2 10.5-6 16-8.69 2.39-1.2 4.75-2.43 7.09-3.71 10.9-5.97 22.1-11 33.6-15.8 2.32-0.981 4.62-1.98 6.93-3 21.2-9.21 43.8-15.4 66.2-21.1 2-0.519 4.01-1.04 6.01-1.56l2.89-0.75c7.21-1.87 14.4-3.77 21.6-5.8 9.25-2.62 18.5-5.02 27.9-7.33 8.28-2.04 16.5-4.16 24.7-6.56 8.04-2.36 16.1-4.44 24.2-6.44 9.43-2.33 18.8-4.73 28.2-7.31 1.04-0.282 2.08-0.563 3.16-0.853 4.75-1.33 8.77-2.62 12.9-5.4h2l0.625-1.69c1.53-2.58 3.4-4.05 5.73-5.89 1.75-1.52 3.17-3.13 4.64-4.92 2.7-3.26 5.74-5.79 9-8.5 1.57-1.72 3.06-3.5 4.55-5.29 2.03-2.4 4.13-4.59 6.45-6.71h2c0.66-1.32 1.32-2.64 2-4h2c0.66-1.32 1.32-2.64 2-4h2c0.66-1.32 1.32-2.64 2-4h2c0.66-1.32 1.32-2.64 2-4h2c0.206-0.557 0.412-1.11 0.625-1.69 1.55-2.6 3.45-4.11 5.81-5.97 2-1.72 3.55-3.73 5.19-5.78 1.46-1.66 3-3 4.7-4.42 3.87-3.34 7.48-6.89 11.1-10.5 0.565-0.571 1.13-1.14 1.71-1.73 2.36-2.39 4.72-4.78 7.07-7.18 1.74-1.77 3.48-3.52 5.22-5.28 0.533-0.547 1.07-1.09 1.62-1.66 1.29-1.3 2.63-2.55 3.99-3.78h2c0.66-1.32 1.32-2.64 2-4h2v-2h2v-2c1.48-1.25 2.96-2.5 4.49-3.68 1.78-1.43 1.78-1.43 3.51-4.32-0.412-2.9-1.54-5.52-2.63-8.23-0.313-0.804-0.625-1.61-0.947-2.44-0.651-1.67-1.31-3.33-1.98-4.98-2.2-5.72-2.78-10.2-2.44-16.3h-2v-23h2c-0.0825-1.22-0.165-2.43-0.25-3.69 0.12-15.4 9.95-32.2 20.2-43.3 1.98-1.69 3.98-3.36 6-5 1.88-2.1 3.69-4.25 5.48-6.43 0.5-0.519 1-1.04 1.52-1.57h2c0.66-1.32 1.32-2.64 2-4h2c0.66-1.32 1.32-2.64 2-4h2c0.66-1.32 1.32-2.64 2-4h2c0.66-1.32 1.32-2.64 2-4h2c0.66-1.32 1.32-2.64 2-4h2c0.66-1.32 1.32-2.64 2-4h2c0.66-1.32 1.32-2.64 2-4h2c0.227-0.557 0.454-1.11 0.688-1.69 1.69-2.97 3.78-5.03 6.31-7.31h2c0.66-1.32 1.32-2.64 2-4h2c0.66-1.32 1.32-2.64 2-4h2c0.66-1.32 1.32-2.64 2-4h2c0.66-1.32 1.32-2.64 2-4h2c0.66-1.32 1.32-2.64 2-4h2c0.66-1.32 1.32-2.64 2-4h2c0.66-1.32 1.32-2.64 2-4h2c0.206-0.557 0.412-1.11 0.625-1.69 1.53-2.58 3.4-4.05 5.73-5.89 1.75-1.52 3.17-3.13 4.64-4.92 1.9-2.3 3.61-4 5.94-5.94 3.27-2.74 5.85-5.7 8.55-8.99 0.5-0.519 1-1.04 1.52-1.57h2c0.33-0.99 0.66-1.98 1-3 2.44-2.69 2.44-2.69 5-5h2c0.66-1.32 1.32-2.64 2-4h2c0.66-1.32 1.32-2.64 2-4h2c0.66-1.32 1.32-2.64 2-4h2c0.66-1.32 1.32-2.64 2-4h2c0.206-0.557 0.412-1.11 0.625-1.69 1.53-2.58 3.4-4.05 5.73-5.89 1.75-1.52 3.17-3.13 4.64-4.92 1.9-2.3 3.61-4 5.94-5.94 3.27-2.74 5.85-5.7 8.55-8.99 0.5-0.519 1-1.04 1.52-1.57h2c0.66-1.32 1.32-2.64 2-4h2c0.66-1.32 1.32-2.64 2-4h2c0.206-0.557 0.412-1.11 0.625-1.69 1.95-3.28 4.32-5.02 7.38-7.31h2v-3c1.41-1.21 2.83-2.41 4.29-3.55 1.79-1.52 3.22-3.14 4.71-4.95 2.7-3.26 5.74-5.79 9-8.5 1.57-1.72 3.06-3.5 4.55-5.29 2.03-2.4 4.13-4.59 6.45-6.71h2c0.66-1.32 1.32-2.64 2-4h2c0.66-1.32 1.32-2.64 2-4h2c0.66-1.32 1.32-2.64 2-4h2c0.206-0.557 0.412-1.11 0.625-1.69 1.53-2.58 3.4-4.05 5.73-5.89 1.75-1.52 3.17-3.13 4.64-4.92 2.73-3.3 5.67-5.81 9-8.5 1.18-1.18 1.18-1.18 2.38-2.38 14.7-14.7 34.4-25.4 55.7-25.6 4.32 0.13 8.59 0.517 12.9 1.02 0.113-0.999 0.227-2 0.344-3.03 2.07-14.3 10.2-30.5 21.6-39.5 0.669-0.478 1.34-0.956 2.03-1.45 0.721-0.53 1.44-1.06 2.18-1.61 22.9-16.1 52.8-15.1 75.1 1.04zm-54.7 37c-3.73 5.89-6.26 10.8-5.06 17.9 2.81 7.2 6.49 13.1 13.4 16.7 5.68 1.7 11.6 1.95 17.1-0.438 5.57-3.11 10.9-8.48 12.9-14.6 0.773-6.73 0.339-12.2-3.3-18-3.98-4.72-9.66-8.5-15.9-9.29-8-0.33-13.6 1.96-19.2 7.71zm-605 568c-0.8 0.203-1.6 0.406-2.43 0.615-1.29 0.341-1.29 0.341-2.6 0.689-0.89 0.229-1.78 0.459-2.7 0.695-8.78 2.28-17.5 4.7-26.2 7.18l-3.78 1.06c-3.41 0.965-6.82 1.95-10.2 2.94-1.48 0.423-1.48 0.423-2.98 0.855-13.8 4.08-27.6 8.81-40.6 15-2.66 1.25-5.37 2.35-8.1 3.45-7.03 2.9-13.8 6.33-20.5 9.79-1.54 0.781-3.09 1.54-4.64 2.3-17.8 9.09-35.2 19.7-51.4 31.4-1.71 1.21-1.71 1.21-3.71 2.21v2l-1.98 0.578c-4.35 2.05-7.69 5.07-11.3 8.17-1.45 1.23-2.91 2.45-4.36 3.67-0.71 0.597-1.42 1.19-2.15 1.81-2.82 2.3-5.76 4.42-8.73 6.51-0.477 0.413-0.953 0.827-1.44 1.25v2c-0.593 0.272-1.19 0.543-1.8 0.823-2.16 1.16-3.67 2.34-5.45 4.01l-1.83 1.71-1.92 1.83-2 1.89c-13.4 12.1-13.4 12.1-25 25.7v3c2.54 1.27 4.3 1.13 7.14 1.13 1.61 0.00473 1.61 0.00473 3.25 0.00955 1.74-0.00304 1.74-0.00304 3.52-0.00613 1.19 9.57e-4 2.38 0.00191 3.6 0.0029 2.52 6.82e-4 5.04-0.00117 7.55-0.00534 3.86-0.00534 7.72-5.65e-5 11.6 0.00635 2.44-6.61e-4 4.88-0.00194 7.33-0.00391 1.16 0.00202 2.32 0.00405 3.51 0.00613 1.61-0.00473 1.61-0.00473 3.26-0.00955 0.947-7.96e-4 1.89-0.00159 2.87-0.00241 2.54-0.0283 2.54-0.0283 5.4-1.13 3.03-3.06 3.03-3.06 4-7 0.99-0.33 1.98-0.66 3-1 2.21-1.88 2.21-1.88 4-4v-2h2v-2h2c1.19-1.14 2.38-2.28 3.52-3.47 2.73-2.82 5.62-5.47 8.48-8.15l1.83-1.73c3.24-3.03 6.35-5.37 10.2-7.64v-2c0.709-0.244 1.42-0.487 2.15-0.738 3.25-1.44 5.68-3.26 8.48-5.45 4.76-3.67 9.65-6.97 14.7-10.1 3.36-2.13 6.6-4.42 9.84-6.72 5.26-3.67 10.6-7.19 16-10.7 2.7-1.79 5.39-3.6 8.08-5.4 4.54-3.03 9.13-5.97 13.7-8.88 4.3-2.76 8.55-5.61 12.8-8.47 0.604-0.406 1.21-0.811 1.83-1.23l1.74-1.17c1.49-0.969 3.04-1.86 4.59-2.74l2.05-1.33v-2l2.5-0.625c3.71-1.46 6.17-3.27 9.27-5.72 3.27-2.42 6.78-4.37 10.3-6.36l1.91-1.3v-2l2.19-0.809c2.82-1.19 5.19-2.59 7.75-4.25l2.89-1.87c1.05-0.682 2.1-1.36 3.18-2.07 1.19-0.763 2.39-1.52 3.58-2.29 5.91-3.77 11.8-7.55 17.4-11.7-3.18-1.06-3.93-0.981-7.04-0.18zm47 23.2c-1.32 0.66-2.64 1.32-4 2v2c-0.706 0.253-1.41 0.505-2.14 0.766-3.16 1.36-5.77 3.05-8.61 4.98l-3.2 2.16-3.05 2.09c-5.6 3.8-11.2 7.37-17.1 10.7-0.617 0.428-1.23 0.856-1.87 1.3v2l-2.06 0.75c-3.51 1.49-6.65 3.32-9.94 5.25v2c-0.697 0.248-1.39 0.495-2.11 0.75-3.31 1.43-6.08 3.23-9.07 5.24-0.578 0.387-1.16 0.774-1.75 1.17-1.84 1.23-3.67 2.47-5.5 3.71-1.23 0.825-2.45 1.65-3.68 2.47-2.27 1.52-4.54 3.05-6.8 4.58-3.02 2.03-6.05 4.06-9.08 6.07l-2.05 1.37c-30.1 20-30.1 20-32.1 21.4-1.63 1.09-3.25 2.18-4.88 3.27-2.92 1.93-5.85 3.84-8.79 5.73-11.9 7.66-23.8 15.3-35.1 23.7-2.07 1.5-2.07 1.5-4.07 2.5v2c3.99 1.33 7.82 1.17 12 1.19 1.38 0.0123 1.38 0.0123 2.78 0.0248 3.04 0.0248 6.09 0.0414 9.13 0.0558 1.04 0.00532 2.08 0.0106 3.15 0.0161 5.5 0.0267 11 0.0461 16.5 0.0605 5.68 0.0167 11.4 0.0615 17 0.112 4.37 0.0336 8.73 0.0452 13.1 0.0509 2.09 0.00672 4.19 0.022 6.28 0.0459 2.93 0.0316 5.86 0.0317 8.79 0.0243 0.866 0.0164 1.73 0.0328 2.62 0.0497 4.38-0.0455 6.07-0.19 9.6-3.04 1.72-2.2 3.37-4.35 4.83-6.72 0.419-0.663 0.838-1.33 1.27-2.01 1.14-1.97 1.14-1.97 0.918-4.87 0.99-0.33 1.98-0.66 3-1 1.69-2.45 3.23-4.88 4.75-7.44 0.895-1.47 1.79-2.94 2.69-4.41 0.437-0.716 0.874-1.43 1.32-2.17 2.06-3.3 4.32-6.45 6.59-9.62 2.43-3.48 4.68-7.08 6.94-10.7 2.14-3.36 4.38-6.64 6.64-9.91 1.24-1.72 1.24-1.72 1.07-3.78h2c1.76-2.57 1.76-2.57 3.5-5.75l1.84-3.23c1.27-2.32 2.5-4.64 3.66-7.02h2l0.812-1.55c4.68-8.68 10.2-16.7 15.9-24.8 2.67-3.8 5.17-7.53 7.25-11.7l-1-2zm23 44c-4.95 5.88-9.03 12.5-13.1 19-2.19 3.45-4.44 6.85-6.71 10.2-0.417 0.624-0.833 1.25-1.26 1.89-2.25 3.37-4.51 6.73-6.79 10.1-0.462 0.685-0.925 1.37-1.4 2.08-0.892 1.32-1.79 2.64-2.69 3.96-2.29 3.1-2.29 3.1-3.05 6.75h-2c-1.6 1.91-1.6 1.91-3.12 4.31l-1.63 2.43c-1.48 2.27-1.48 2.27-1.24 5.26l-3 1v4l-4 2v3c4.48 2.24 10.5 1.32 15.4 1.38 1.25 0.0374 2.51 0.0748 3.8 0.113l3.63 0.0352c1.65 0.0297 1.65 0.0297 3.34 0.0601 2.95-0.309 2.95-0.309 4.55-2.8 3.77-8.47 6.46-17.4 9.18-26.2 0.347-1.13 0.694-2.26 1.05-3.42 2.82-9.3 5.25-18.7 7.51-28.1 0.906-3.68 1.96-7.32 3.02-11 0.63-2.39 0.63-2.39 0.48-6.09h-2zm-339 119c-0.493 2.88-0.853 5.66-1.12 8.56-0.0835 0.859-0.167 1.72-0.253 2.6-1.99 22-1.4 50.7 11.4 69.8l3-1c0.992-2.1 0.992-2.1 1.65-4.71 0.28-0.973 0.561-1.95 0.85-2.95 0.289-1.04 0.579-2.08 0.877-3.16 2.11-7.26 4.24-14.3 7.33-21.3 1-2.26 1.94-4.52 2.84-6.82 4.13-10.4 9.03-20.3 14.5-30.1 1.19-2.17 2.38-4.33 3.56-6.5 0.476-0.856 0.951-1.71 1.44-2.59 1.07-1.7 1.07-1.7 0.996-2.91-6.37-0.0253-12.7-0.0428-19.1-0.0549-2.17-0.00504-4.34-0.0119-6.51-0.0205-3.11-0.0121-6.23-0.0178-9.34-0.0222-0.974-0.00516-1.95-0.0103-2.95-0.0156-1.35-1.13e-4 -1.35-1.13e-4 -2.73-2.29e-4 -0.795-0.00222-1.59-0.00444-2.41-0.00673-2.03-0.00233-2.03-0.00233-3.95 1.12zm94.3 1.35c-1.55 2.6-1.55 2.6-1.33 5.65l-1.75 0.562c-2.63 1.68-3.64 3.5-5.07 6.23-1.35 2.54-2.82 4.99-4.3 7.46-14.9 25.6-28.6 54.1-32.9 83.8 31.2-6.92 59.4-19 87-35l2.96-1.64c0.674-0.45 1.35-0.9 2.04-1.36v-2l1.65-0.25c3.16-1.01 5.28-2.73 7.91-4.75 0.781-0.597 0.781-0.597 1.58-1.21 4.54-3.49 8.98-7.1 13.4-10.8 1.73-1.43 3.5-2.82 5.29-4.18l2.18-1.86v-2l1.64-0.66c3.15-1.79 5.52-4.21 8.04-6.78 0.791-0.798 0.791-0.798 1.6-1.61 4.17-4.26 7.98-8.75 11.7-13.4 1.88-2.35 3.83-4.6 5.84-6.85 5.01-5.22 5.01-5.22 7.19-11.7-14.5-0.117-29.1-0.205-43.6-0.259-6.75-0.0258-13.5-0.0609-20.2-0.118-6.51-0.0552-13-0.0842-19.5-0.0972-2.49-0.00925-4.97-0.0273-7.46-0.0543-3.48-0.0362-6.95-0.0413-10.4-0.039-1.03-0.018-2.07-0.036-3.13-0.0545-5.66-0.0409-5.66-0.0409-10.3 2.97zm161 2.95c-0.897 1.7-0.897 1.7-0.761 3.7h-2c-1.24 1.85-2.39 3.76-3.5 5.69-4.8 8.11-10.5 15.3-16.4 22.7-1.36 1.7-2.71 3.4-4.05 5.1-5.42 6.79-11.2 13-17.4 19.1-1.55 1.53-3.08 3.08-4.61 4.63-6.36 6.37-13 12.2-20.1 17.8-0.617 0.491-1.23 0.983-1.87 1.49-19.5 15.5-40.5 28.2-63.1 38.5-1.24 0.572-1.24 0.572-2.5 1.16-5.41 2.47-10.9 4.58-16.5 6.68-2.28 0.88-4.52 1.79-6.76 2.79-5.41 2.29-10.9 4.09-16.6 5.44-3.69 0.742-3.69 0.742-6.62 2.94 0.65 3.1 0.65 3.1 2.94 4.03 5.69 1.98 11.4 3.67 17.2 5.16 0.652 0.167 1.3 0.334 1.98 0.506 31.5 7.71 65.7 3.14 93.8-12.7 0.931-0.516 1.86-1.03 2.82-1.56 8.69-5.01 17-10.4 23.2-18.4 1.33-1.01 2.66-2.01 4-3v-2c0.99-0.33 1.98-0.66 3-1 1.49-1.46 1.49-1.46 2.88-3.25 1.89-2.3 3.74-4.35 5.88-6.44 2.3-2.13 2.3-2.13 3.38-4.56 0.875-1.75 0.875-1.75 3.88-2.75 1.74-2.01 3.34-4.01 4.94-6.12 0.982-1.28 1.97-2.56 2.95-3.84 0.51-0.665 1.02-1.33 1.54-2.01 2.05-2.65 4.16-5.26 6.27-7.86 5.03-6.22 9.84-12.5 14.3-19.2 0.764-1.12 1.53-2.23 2.29-3.35 5.54-8.13 10.7-16.5 15.6-25 0.551-0.95 0.551-0.95 1.11-1.92 0.9-1.56 1.79-3.12 2.68-4.69 1.34-2.07 1.34-2.07 3.34-3.07 0.993-2.07 0.993-2.07 1.88-4.56 1.3-3.42 2.69-6.69 4.38-9.94 1.9-3.15 1.9-3.15 1.75-5.5-5.75-0.173-11.5-0.3-17.2-0.385-1.95-0.0352-3.91-0.0829-5.86-0.144-2.81-0.0851-5.62-0.125-8.44-0.156-1.31-0.0542-1.31-0.0542-2.64-0.109-5.77-0.00372-8.03 1.13-11.1 6.09zm-531-5.3c-0.0456 11.7-0.0456 11.7 0.918 23.3 0.0972 0.803 0.194 1.61 0.295 2.43 0.314 2.56 0.643 5.11 0.975 7.67 0.113 0.882 0.225 1.76 0.341 2.67 1.82 14.2 4.08 28.1 7.47 42l0.757 3.18c7.11 29.6 16.8 58.5 30.2 85.8 0.325 0.665 0.65 1.33 0.985 2.02 5.45 11.1 11.2 22 17.6 32.6 1.34 2.25 2.62 4.53 3.87 6.83 3.99 7.25 8.38 14.1 13.6 20.6 0.709 1.31 1.39 2.64 2 4h2c0.115 0.583 0.229 1.17 0.348 1.77 0.701 2.4 1.63 3.96 3.09 5.98 0.648 0.92 0.648 0.92 1.31 1.86 0.414 0.459 0.828 0.918 1.25 1.39h2c0.192 0.654 0.384 1.31 0.582 1.98 2.04 4.34 5.02 7.69 8.11 11.3 0.6 0.721 1.2 1.44 1.82 2.19 3.03 3.63 6.11 7.21 9.24 10.8 2.35 2.67 4.59 5.37 6.7 8.24 0.494 0.67 0.987 1.34 1.5 2.03 0.528 0.727 0.528 0.727 1.07 1.47 1.92-0.147 1.92-0.147 4-1 1.57-2.05 1.57-2.05 2.85-4.67 0.517-0.968 1.03-1.94 1.57-2.93 0.544-1.04 1.09-2.07 1.65-3.14 5.15-9.44 10.4-17.6 17.9-25.2 0.473-0.484 0.945-0.967 1.43-1.47 10.6-10.7 22.8-17.6 36.6-23.5 1.1-0.505 2.2-1.01 3.33-1.53 24.5-9.83 55.5-7.92 79.6 2.09 4.6 2.17 9.04 4.57 13.5 7.08 2.39 1.51 2.39 1.51 4.58 1.36v2c1.91 1.6 1.91 1.6 4.31 3.12l2.43 1.63c2.27 1.48 2.27 1.48 5.26 1.24 0.33 0.99 0.66 1.98 1 3 2.14 1.45 2.14 1.45 4.81 2.75 4.02 2.1 7.93 4.28 11.8 6.62 20.8 12.1 43.6 20 67.4 23.6l2.27 0.351c51.7 7.55 105-2.63 150-30.4 1.16-0.695 2.33-1.39 3.5-2.08 1.21-0.724 2.42-1.45 3.63-2.17 1.67-0.998 1.67-0.998 3.38-2.02l2.49-1.73v-2c0.677-0.215 1.35-0.431 2.05-0.652 3.87-1.77 6.86-4.23 10.1-6.91 6.61-5.34 6.61-5.34 8.81-6.44v-3c0.99-0.33 1.98-0.66 3-1v-2c0.639-0.268 1.28-0.536 1.94-0.812 2.39-1.07 2.39-1.07 3.06-4.19 0.99-0.33 1.98-0.66 3-1 1.58-1.52 1.58-1.52 3.12-3.44 2.69-3.18 5.44-6.3 8.25-9.38 4.73-5.24 9.19-10.7 13.6-16.2 2.45-3.02 4.9-5.9 7.69-8.62 2.35-2.17 2.35-2.17 3.38-4.56 0.938-1.81 0.938-1.81 2.78-2.73 2.3-1.15 3.79-2.44 5.66-4.21 4.37-3.95 9.18-7.04 14.2-10.2 0.773-0.561 1.55-1.12 2.34-1.7v-2c0.784-0.206 1.57-0.412 2.38-0.625 3.12-1.18 5.45-2.43 8.25-4.19 5.54-3.43 11.3-5.79 17.4-8.19 1.14-0.503 2.28-1.01 3.46-1.52 33.6-14 79.2-16.7 114-4.48 0.913 0.308 1.83 0.616 2.77 0.934 15.1 5.49 28.5 16.2 40 27.2 1.98 2.12 1.98 2.12 4.21 1.91 0.257 0.728 0.513 1.46 0.777 2.21 1.28 2.92 2.78 5.01 4.79 7.48 3.36 4.15 3.36 4.15 4.44 6.31h2c0.262 0.849 0.523 1.7 0.793 2.57 2.14 6.08 5.26 11.7 8.21 17.4 0.638 1.32 0.638 1.32 1.29 2.66 4.22 8.35 10.9 14.1 19.7 17.3 3.28 0.6 6.55 0.773 9.88 0.938 21.7 1.59 40.8 8.7 55.9 24.9 6.77 7.92 11.8 16.3 15.2 26.1 3.53-0.6 3.91-0.877 6.25-3.94 1.92-2.76 1.92-2.76 1.75-5.06 0.99-0.33 1.98-0.66 3-1v-2h2v-3h2c2.6-3.5 4.55-6.89 6-11h2c1.59-2.1 1.59-2.1 3.19-4.81 0.936-1.51 0.936-1.51 1.89-3.06 0.634-1.03 1.27-2.07 1.92-3.13 1.14-1.79 2.29-3.59 3.44-5.38 9.24-14.5 18-29.2 25.6-44.6 0.668-1.33 1.34-2.66 2.01-3.99 0.351-0.696 0.701-1.39 1.06-2.11 0.678-1.35 1.36-2.69 2.04-4.03 16.8-33.5 27-70.1 33.9-107 0.136-0.707 0.273-1.41 0.414-2.14 2.32-12 3.84-24.2 5.27-36.3 0.254-2.02 0.568-4.03 0.901-6.03 0.571-4.79 0.414-9.65 0.414-14.5h-439l-5 12c-1.22 2.59-2.45 5.14-3.75 7.69-0.499 0.988-0.499 0.988-1.01 2-9.37 18.4-9.37 18.4-14.5 27.2-1.9 2.82-1.9 2.82-1.73 5.13h-2c-1.55 2.3-1.55 2.3-3.12 5.25-6.04 10.7-12.8 21.3-20.6 30.8-1.58 1.93-1.58 1.93-1.3 4.91l-3 1c-1.82 2.21-1.82 2.21-3.62 4.94-3.4 4.82-7.07 9.16-11.1 13.5-7.33 7.55-7.33 7.55-12.3 16.6-0.99 0.33-1.98 0.66-3 1-1.82 1.72-1.82 1.72-3.56 3.81-0.599 0.687-1.2 1.37-1.82 2.08-1.67 2.03-1.67 2.03-2.7 4.29-1.19 2.36-2.52 2.86-4.92 3.82v2c-1.32 0.66-2.64 1.32-4 2v2c-0.885 0.416-0.885 0.416-1.79 0.84-2.08 1.09-3.77 2.26-5.59 3.73-0.61 0.485-1.22 0.971-1.85 1.47-0.625 0.503-1.25 1.01-1.89 1.53-6.64 5.32-6.64 5.32-8.88 6.44v2c-0.692 0.246-1.38 0.492-2.1 0.746-2.71 1.17-5.08 2.57-7.56 4.17-15.7 10-33.3 16.1-51.3 20.1-0.677 0.157-1.35 0.314-2.05 0.476-35.1 7.99-73.7 3.32-106-12.5-1.48-0.694-1.48-0.694-2.99-1.4-15.4-7.36-30.1-17.3-42-29.6l-1.7-1.63c-5.25-5.06-9.76-10.7-14.3-16.4-0.656-0.812-1.31-1.62-1.99-2.46-2.95-3.7-5.67-7.35-7.92-11.5-1.46-2.67-3.03-5.27-4.59-7.88-8.61-14.8-14-31.4-17.5-48.1l-0.458-2.13c-4.11-19.8-2.73-39.7-1.54-59.9h-234zm702 242c-3.54 5.02-3.91 10.1-3 16 2.32 7.3 6.23 12.4 13 16 5.62 1.81 11.2 1.6 16.8-0.25 6.68-3.6 10.5-7.64 13.2-14.8 1.25-6.39 0.0457-11.5-3.37-17-3.55-4.46-7.93-8.04-13.6-9.05-9.48-0.912-16.5 2.13-23 9zm89 38v2c-0.99 0.33-1.98 0.66-3 1-3.99 5.12-4.75 9.54-4.51 16 1.13 6.66 5.25 11.2 10.3 15.5 4.5 3.09 8.84 3.89 14.2 3.5 4.48-1.02 8.65-2.79 12-6v-2c0.99-0.33 1.98-0.66 3-1 3.33-4.37 4.73-9.26 4.45-14.7-1.46-7.52-6.27-13.1-12.4-17.3-8.39-4.86-16.3-1.49-24 3zm-577 26.1c-3.42 4.96-2.85 11.1-2.31 16.9 2.09 6.29 7.46 11.5 13 15 2.35 0.77 2.35 0.77 5 1 1.58 0.186 1.58 0.186 3.19 0.375 6.38-0.627 12.4-3.4 16.8-8.25 3.85-5.83 5.67-10.1 4.57-17-0.73-3.05-1.88-5.47-3.51-8.14l-1.56-2.56c-4.37-4.37-10.2-7.65-16.5-8-8.29 1.18-13.3 4.24-18.6 10.7zm403 0.215c-3.02 4.56-3.66 8.24-3.12 13.7 2.6 7.81 6.49 14.2 14 18 6.67 1.48 12 1.61 18-2 4.85-3.59 9.18-7.08 11-13 0.526-5.84 0.448-10.6-2-16h-2l-0.188-1.75c-1.36-3.77-4.16-5.43-7.68-7.17-10.9-4.5-20.9-1.07-28 8.23z"/>
<path transform="translate(346 788)" d="m0 0c6.01 2.74 9.06 6.89 12.7 12.3 0.814 8.06 1.15 15.4-4 22h-2c-0.33 0.99-0.66 1.98-1 3-5.17 4.02-9.56 4.68-16.1 4.45-5.75-0.886-9.33-3.76-13.3-7.89-4.12-6.25-5.88-11.1-4.69-18.6 2.54-6.87 6.6-11.4 12.9-15.1 4.78-1.99 10.6-1.66 15.5-0.207z"/>
<path transform="translate(284 704)" d="m0 0c5.84 2.86 9.2 6.79 11.8 12.7 0.904 6.03 0.765 12-1.69 17.6-3.75 4.55-7.1 8.14-12.8 10.1-6.81 0.642-12.4 0.469-18.2-3.48-5.37-4.54-7.42-7.76-8.04-14.9-0.281-6.88 0.957-11.8 5.39-17.3 7.34-6.03 14.3-8.27 23.4-4.75z"/>
<path transform="translate(460 729)" d="m0 0c4.86 4.8 5.77 8.62 6.1 15.3-0.198 6.89-1.95 11.1-6.62 16.1-5.47 5.09-9.84 5.24-17.1 5.14-5.45-0.261-8.45-1.34-12.1-5.33-4.19-5.33-6.47-10.6-6.23-17.4 0.793-4.54 2.74-8.68 5.42-12.4 2.17-1.29 2.17-1.29 4-2v-2c8.26-4.95 19.2-3.46 26.5 2.55z"/>
<path transform="translate(372,1065)" d="m0 0c4.49 3.88 7.61 7.5 8.54 13.5 0.174 7.71-0.215 12.9-5.62 18.8-5.6 5.05-9.67 6.05-17.1 5.94-5.62-0.418-9.29-2.38-13-6.46-3.42-4.35-5.42-8.56-6.25-14.1 1.05-7.75 4.74-13.7 10.8-18.6 6.77-4.11 16.2-2.78 22.7 0.941z"/>
<path transform="translate(429,999)" d="m0 0c6.63 2.39 10.8 6.09 14.2 12.2 1.81 6.79 1.47 12.9-2.05 19.1-3.22 4.7-6.83 7.83-12.2 9.75-6.79 0.936-12.4 0.0942-18-4-5.09-4.78-8.01-9.31-8.31-16.4 0.153-5.77 1.84-9.92 5.62-14.3 0.887-0.763 1.77-1.53 2.69-2.31 0.846-0.763 1.69-1.53 2.56-2.31 5.15-2.53 9.8-2.53 15.4-1.69z"/>
<path transform="translate(1153 1e3)" d="m0 0c5.43 2.88 9.36 6.07 11.4 12.1 0.146 2.29 0.221 4.58 0.25 6.88 0.0258 1.21 0.0516 2.43 0.0781 3.68-0.353 3.7-1.19 5.46-3.33 8.45-0.536 0.846-1.07 1.69-1.62 2.56-4.31 4.43-9.71 6.61-15.9 7-6.35-0.311-11.4-3.53-15.9-7.81-2.91-4.93-4.66-9.55-4.56-15.3 2.09-7.65 5.26-13 11.9-17.4 5.64-1.88 12-2.06 17.6-0.0586z"/>
<path transform="translate(911 957)" d="m0 0c1.22-0.0142 2.45-0.0284 3.71-0.043 3.31 0.219 5.52 0.804 8.48 2.23v2c0.577 0.186 1.15 0.371 1.75 0.562 3.42 2.18 5.03 4.66 6.25 8.44 0.93 6.65 1.4 13-2.69 18.6-3.55 3.92-7.4 8.15-12.9 8.58-12.8 0.193-12.8 0.193-18.1-4.75-3.99-4.4-6.93-8.73-7.85-14.7 1.05-7.87 4.74-13.8 10.9-18.7 3.49-2.38 6.17-2.22 10.4-2.25z"/>
<path transform="translate(327 958)" d="m0 0c4.51 3.41 8.44 7.63 10.6 12.9 0.921 7.92-0.35 13-4.75 19.6-3.72 3.93-6.79 6.11-12.2 6.69-12.3 0.229-12.3 0.229-16.7-3.76-4.41-4.78-7.49-9.92-7.79-16.6 0.243-5.45 2.13-9.56 5.69-13.7 0.887-0.763 1.77-1.53 2.69-2.31 0.825-0.763 1.65-1.53 2.5-2.31 6.27-3.02 13.4-2.66 19.9-0.625z"/>
</svg>
